<svg width="85" height="84" viewBox="0 0 85 84" fill="none" xmlns="http://www.w3.org/2000/svg">
  <path
    d="M42.5002 62.8334C43.6807 62.8334 44.671 62.4334 45.471 61.6334C46.2682 60.8362 46.6668 59.8473 46.6668 58.6667V41.8959C46.6668 40.7153 46.2682 39.7431 45.471 38.9792C44.671 38.2153 43.6807 37.8334 42.5002 37.8334C41.3196 37.8334 40.3307 38.232 39.5335 39.0292C38.7335 39.8292 38.3335 40.8195 38.3335 42V58.7709C38.3335 59.9514 38.7335 60.9237 39.5335 61.6875C40.3307 62.4514 41.3196 62.8334 42.5002 62.8334ZM42.5002 29.5C43.6807 29.5 44.671 29.1 45.471 28.3C46.2682 27.5028 46.6668 26.5139 46.6668 25.3334C46.6668 24.1528 46.2682 23.1625 45.471 22.3625C44.671 21.5653 43.6807 21.1667 42.5002 21.1667C41.3196 21.1667 40.3307 21.5653 39.5335 22.3625C38.7335 23.1625 38.3335 24.1528 38.3335 25.3334C38.3335 26.5139 38.7335 27.5028 39.5335 28.3C40.3307 29.1 41.3196 29.5 42.5002 29.5ZM42.5002 83.6667C36.7363 83.6667 31.3196 82.5723 26.2502 80.3834C21.1807 78.1973 16.771 75.2292 13.021 71.4792C9.271 67.7292 6.30294 63.3195 4.11683 58.25C1.92794 53.1806 0.833496 47.7639 0.833496 42C0.833496 36.2362 1.92794 30.8195 4.11683 25.75C6.30294 20.6806 9.271 16.2709 13.021 12.5209C16.771 8.77088 21.1807 5.80143 26.2502 3.61254C31.3196 1.42643 36.7363 0.333374 42.5002 0.333374C48.2641 0.333374 53.6807 1.42643 58.7502 3.61254C63.8196 5.80143 68.2293 8.77088 71.9793 12.5209C75.7293 16.2709 78.6974 20.6806 80.8835 25.75C83.0724 30.8195 84.1668 36.2362 84.1668 42C84.1668 47.7639 83.0724 53.1806 80.8835 58.25C78.6974 63.3195 75.7293 67.7292 71.9793 71.4792C68.2293 75.2292 63.8196 78.1973 58.7502 80.3834C53.6807 82.5723 48.2641 83.6667 42.5002 83.6667ZM42.5002 75.3334C51.7363 75.3334 59.6016 72.0875 66.096 65.5959C72.5877 59.1014 75.8335 51.2362 75.8335 42C75.8335 32.7639 72.5877 24.8987 66.096 18.4042C59.6016 11.9125 51.7363 8.66671 42.5002 8.66671C33.2641 8.66671 25.4002 11.9125 18.9085 18.4042C12.4141 24.8987 9.16683 32.7639 9.16683 42C9.16683 51.2362 12.4141 59.1014 18.9085 65.5959C25.4002 72.0875 33.2641 75.3334 42.5002 75.3334Z"
    fill="#0EA5E9" />
</svg>