<svg width="20" height="21" viewBox="0 0 20 21" fill="none" xmlns="http://www.w3.org/2000/svg">
<g clip-path="url(#clip0_495_17263)">
<path d="M10 4.66663C9.22645 4.66663 8.48459 4.97392 7.93761 5.5209C7.39062 6.06788 7.08333 6.80974 7.08333 7.58329C7.08333 8.35684 7.39062 9.09871 7.93761 9.64569C8.48459 10.1927 9.22645 10.5 10 10.5C10.7735 10.5 11.5154 10.1927 12.0624 9.64569C12.6094 9.09871 12.9167 8.35684 12.9167 7.58329C12.9167 6.80974 12.6094 6.06788 12.0624 5.5209C11.5154 4.97392 10.7735 4.66663 10 4.66663ZM10 6.33329C10.3315 6.33329 10.6495 6.46499 10.8839 6.69941C11.1183 6.93383 11.25 7.25177 11.25 7.58329C11.25 7.91481 11.1183 8.23276 10.8839 8.46718C10.6495 8.7016 10.3315 8.83329 10 8.83329C9.66848 8.83329 9.35054 8.7016 9.11612 8.46718C8.8817 8.23276 8.75 7.91481 8.75 7.58329C8.75 7.25177 8.8817 6.93383 9.11612 6.69941C9.35054 6.46499 9.66848 6.33329 10 6.33329ZM4.58333 7.16663C4.0308 7.16663 3.5009 7.38612 3.11019 7.77682C2.71949 8.16752 2.5 8.69742 2.5 9.24996C2.5 10.0333 2.94167 10.7083 3.575 11.0666C3.875 11.2333 4.21667 11.3333 4.58333 11.3333C4.95 11.3333 5.29167 11.2333 5.59167 11.0666C5.9 10.8916 6.15833 10.6416 6.35 10.3416C5.7429 9.55043 5.41473 8.58056 5.41667 7.58329V7.34996C5.16667 7.23329 4.88333 7.16663 4.58333 7.16663ZM15.4167 7.16663C15.1167 7.16663 14.8333 7.23329 14.5833 7.34996V7.58329C14.5833 8.58329 14.2583 9.54996 13.65 10.3416C13.75 10.5 13.8583 10.625 13.9833 10.75C14.3676 11.1225 14.8814 11.3316 15.4167 11.3333C15.7833 11.3333 16.125 11.2333 16.425 11.0666C17.0583 10.7083 17.5 10.0333 17.5 9.24996C17.5 8.69742 17.2805 8.16752 16.8898 7.77682C16.4991 7.38612 15.9692 7.16663 15.4167 7.16663ZM10 12.1666C8.05 12.1666 4.16667 13.1416 4.16667 15.0833V16.3333H15.8333V15.0833C15.8333 13.1416 11.95 12.1666 10 12.1666ZM3.925 12.625C2.31667 12.8166 0 13.6333 0 15.0833V16.3333H2.5V14.725C2.5 13.8833 3.075 13.1833 3.925 12.625ZM16.075 12.625C16.925 13.1833 17.5 13.8833 17.5 14.725V16.3333H20V15.0833C20 13.6333 17.6833 12.8166 16.075 12.625ZM10 13.8333C11.275 13.8333 12.7 14.25 13.525 14.6666H6.475C7.3 14.25 8.725 13.8333 10 13.8333Z" fill="white"/>
</g>
<defs>
<clipPath id="clip0_495_17263">
<rect width="20" height="20" fill="white" transform="translate(0 0.5)"/>
</clipPath>
</defs>
</svg>
