<svg width="75" height="76" viewBox="0 0 75 76" fill="none" xmlns="http://www.w3.org/2000/svg">
  <path
    d="M25.3125 75.5C24.2014 75.5 23.1417 75.2917 22.1333 74.875C21.1278 74.4583 20.2431 73.868 19.4792 73.1042L2.39583 56.0208C1.63194 55.2569 1.04167 54.3722 0.625 53.3667C0.208334 52.3583 0 51.2986 0 50.1875V25.8125C0 24.7014 0.208334 23.6417 0.625 22.6333C1.04167 21.6278 1.63194 20.7431 2.39583 19.9792L19.4792 2.89583C20.2431 2.13194 21.1278 1.54167 22.1333 1.125C23.1417 0.708334 24.2014 0.5 25.3125 0.5H49.6875C50.7986 0.5 51.8583 0.708334 52.8667 1.125C53.8722 1.54167 54.7569 2.13194 55.5208 2.89583L72.6042 19.9792C73.368 20.7431 73.9583 21.6278 74.375 22.6333C74.7917 23.6417 75 24.7014 75 25.8125V50.1875C75 51.2986 74.7917 52.3583 74.375 53.3667C73.9583 54.3722 73.368 55.2569 72.6042 56.0208L55.5208 73.1042C54.7569 73.868 53.8722 74.4583 52.8667 74.875C51.8583 75.2917 50.7986 75.5 49.6875 75.5H25.3125ZM37.5 43.8333L46.5625 52.8958C47.3264 53.6597 48.2639 54.0417 49.375 54.0417C50.4861 54.0417 51.4583 53.625 52.2917 52.7917C53.0556 52.0278 53.4375 51.0556 53.4375 49.875C53.4375 48.6944 53.0556 47.7222 52.2917 46.9583L43.3333 38L52.3958 28.9375C53.1597 28.1736 53.5417 27.2361 53.5417 26.125C53.5417 25.0139 53.125 24.0417 52.2917 23.2083C51.5278 22.4444 50.5556 22.0625 49.375 22.0625C48.1944 22.0625 47.2222 22.4444 46.4583 23.2083L37.5 32.1667L28.4375 23.1042C27.6736 22.3403 26.7361 21.9583 25.625 21.9583C24.5139 21.9583 23.5417 22.375 22.7083 23.2083C21.9444 23.9722 21.5625 24.9444 21.5625 26.125C21.5625 27.3056 21.9444 28.2778 22.7083 29.0417L31.6667 38L22.6042 47.0625C21.8403 47.8264 21.4583 48.7639 21.4583 49.875C21.4583 50.9861 21.875 51.9583 22.7083 52.7917C23.4722 53.5556 24.4444 53.9375 25.625 53.9375C26.8056 53.9375 27.7778 53.5556 28.5417 52.7917L37.5 43.8333ZM25.4167 67.1667H49.5833L66.6667 50.0833V25.9167L49.5833 8.83333H25.4167L8.33333 25.9167V50.0833L25.4167 67.1667Z"
    fill="#FF5724" />
</svg>