<svg width="18" height="18" viewBox="0 0 18 18" fill="none" xmlns="http://www.w3.org/2000/svg">
  <path
    d="M14.8748 17L12.4373 14.5833L10.604 16.4166L10.0207 15.8333C9.70123 15.5139 9.5415 15.118 9.5415 14.6458C9.5415 14.1736 9.70123 13.7778 10.0207 13.4583L13.5415 9.93748C13.8609 9.61804 14.2568 9.45831 14.729 9.45831C15.2012 9.45831 15.5971 9.61804 15.9165 9.93748L16.4998 10.5208L14.6665 12.3541L17.0832 14.7916C17.2498 14.9583 17.3332 15.1528 17.3332 15.375C17.3332 15.5972 17.2498 15.7916 17.0832 15.9583L16.0415 17C15.8748 17.1666 15.6804 17.25 15.4582 17.25C15.2359 17.25 15.0415 17.1666 14.8748 17ZM17.3332 3.91665L7.87484 13.375L7.979 13.4583C8.29845 13.7778 8.45817 14.1736 8.45817 14.6458C8.45817 15.118 8.29845 15.5139 7.979 15.8333L7.39567 16.4166L5.56234 14.5833L3.12484 17C2.95817 17.1666 2.76373 17.25 2.5415 17.25C2.31928 17.25 2.12484 17.1666 1.95817 17L0.916504 15.9583C0.749837 15.7916 0.666504 15.5972 0.666504 15.375C0.666504 15.1528 0.749837 14.9583 0.916504 14.7916L3.33317 12.3541L1.49984 10.5208L2.08317 9.93748C2.40261 9.61804 2.79845 9.45831 3.27067 9.45831C3.74289 9.45831 4.13873 9.61804 4.45817 9.93748L4.5415 10.0416L13.9998 0.583313H17.3332V3.91665ZM4.7915 8.04165L0.666504 3.91665V0.583313H3.99984L8.12484 4.70831L4.7915 8.04165Z"
    fill="#C2C9D6" />
</svg>